<svg xmlns="http://www.w3.org/2000/svg" version="1.1" xmlns:xlink="http://www.w3.org/1999/xlink" xmlns:svgjs="http://svgjs.dev/svgjs" width="2000" height="1500" viewBox="0 0 2000 1500"><rect width="2000" height="1500" fill="#f9f6ed"></rect><g transform="matrix(0.75,0,0,0.75,220.71702128048128,575.7614708263873)"><svg viewBox="0 0 405 94" data-background-color="#f9f6ed" preserveAspectRatio="xMidYMid meet" height="464" width="2000" xmlns="http://www.w3.org/2000/svg" xmlns:xlink="http://www.w3.org/1999/xlink"><g id="tight-bounds" transform="matrix(1,0,0,1,9.166641453256261,0.06443029402183242)"><svg viewBox="0 0 395.52 93.87113941195635" height="93.87113941195635" width="395.52"><g><svg viewBox="0 0 593.3381307356633 140.8205056349035" height="93.87113941195635" width="395.52"><g><rect width="8.653806478715218" height="140.8205056349035" x="166.51038059538996" y="0" fill="#21272d" opacity="1" stroke-width="0" stroke="transparent" fill-opacity="1" class="rect-yte-0" data-fill-palette-color="primary" rx="1%" id="yte-0" data-palette-color="#21272d"></rect></g><g transform="matrix(1,0,0,1,197.81813073566335,0.3502997652609423)"><svg viewBox="0 0 395.52 140.1199061043816" height="140.1199061043816" width="395.52"><g id="textblocktransform"><svg viewBox="0 0 395.52 140.1199061043816" height="140.1199061043816" width="395.52" id="textblock"><g><svg viewBox="0 0 395.52 95.96038420490927" height="95.96038420490927" width="395.52"><g transform="matrix(1,0,0,1,0,0)"><svg width="395.52" viewBox="1.75 -33.48 140.54 34.11" height="95.96038420490927" data-palette-color="#21272d"><path d="M10.93 0.55L10.93 0.55Q7.98 0.55 5.78-0.09 3.58-0.73 2.13-1.48L2.13-1.48 1.75-5.23Q3.58-4.28 5.76-3.58 7.95-2.88 10.73-2.88L10.73-2.88Q13.55-2.88 14.98-3.78 16.4-4.67 16.4-6.45L16.4-6.45 16.4-6.73Q16.4-7.88 15.86-8.63 15.33-9.38 13.93-9.95 12.53-10.53 9.95-11.1L9.95-11.1Q6.88-11.78 5.1-12.69 3.33-13.6 2.56-14.95 1.8-16.3 1.8-18.25L1.8-18.25 1.8-18.48Q1.8-21.68 4.03-23.33 6.25-24.98 10.73-24.98L10.73-24.98Q13.6-24.98 15.71-24.33 17.82-23.68 19.18-22.88L19.18-22.88 19.55-19.45Q17.93-20.4 15.83-21.03 13.73-21.65 11.1-21.65L11.1-21.65Q9.2-21.65 8.03-21.26 6.85-20.88 6.33-20.16 5.8-19.45 5.8-18.45L5.8-18.45 5.8-18.25Q5.8-17.15 6.33-16.39 6.85-15.63 8.21-15.06 9.58-14.5 12-13.98L12-13.98Q15.13-13.35 16.96-12.48 18.8-11.6 19.6-10.26 20.4-8.93 20.4-6.83L20.4-6.83 20.4-6.4Q20.4-2.95 18-1.2 15.6 0.55 10.93 0.55ZM34.7 0.55L34.7 0.55Q29.45 0.55 26.88-2.29 24.32-5.13 24.32-10.33L24.32-10.33 24.32-14.13Q24.32-19.35 26.9-22.16 29.47-24.98 34.7-24.98L34.7-24.98Q36.25-24.98 37.52-24.69 38.8-24.4 39.81-23.94 40.82-23.48 41.52-22.98L41.52-22.98 41.87-19.45Q40.7-20.35 39.09-20.98 37.47-21.6 35.3-21.6L35.3-21.6Q31.8-21.6 30.09-19.66 28.37-17.73 28.37-14.03L28.37-14.03 28.37-10.43Q28.37-6.8 30.09-4.85 31.8-2.9 35.3-2.9L35.3-2.9Q37.55-2.9 39.19-3.53 40.82-4.15 42.1-5.05L42.1-5.05 41.72-1.48Q40.62-0.73 38.85-0.09 37.07 0.55 34.7 0.55ZM51.12-24.4L51.12 0 47.07 0 47.07-24.4 51.12-24.4ZM49.1-28.4L49.1-28.4Q47.85-28.4 47.23-29.06 46.62-29.73 46.62-30.88L46.62-30.88 46.62-31Q46.62-32.18 47.23-32.83 47.85-33.48 49.1-33.48L49.1-33.48Q50.35-33.48 50.97-32.83 51.6-32.18 51.6-31L51.6-31 51.6-30.88Q51.6-29.7 50.97-29.05 50.35-28.4 49.1-28.4ZM65.34 0.55L65.34 0.55Q62.39 0.55 60.19-0.09 57.99-0.73 56.54-1.48L56.54-1.48 56.17-5.23Q57.99-4.28 60.18-3.58 62.37-2.88 65.14-2.88L65.14-2.88Q67.97-2.88 69.39-3.78 70.82-4.67 70.82-6.45L70.82-6.45 70.82-6.73Q70.82-7.88 70.28-8.63 69.74-9.38 68.34-9.95 66.94-10.53 64.37-11.1L64.37-11.1Q61.29-11.78 59.52-12.69 57.74-13.6 56.98-14.95 56.22-16.3 56.22-18.25L56.22-18.25 56.22-18.48Q56.22-21.68 58.44-23.33 60.67-24.98 65.14-24.98L65.14-24.98Q68.02-24.98 70.13-24.33 72.24-23.68 73.59-22.88L73.59-22.88 73.97-19.45Q72.34-20.4 70.24-21.03 68.14-21.65 65.52-21.65L65.52-21.65Q63.62-21.65 62.44-21.26 61.27-20.88 60.74-20.16 60.22-19.45 60.22-18.45L60.22-18.45 60.22-18.25Q60.22-17.15 60.74-16.39 61.27-15.63 62.63-15.06 63.99-14.5 66.42-13.98L66.42-13.98Q69.54-13.35 71.38-12.48 73.22-11.6 74.02-10.26 74.82-8.93 74.82-6.83L74.82-6.83 74.82-6.4Q74.82-2.95 72.42-1.2 70.02 0.55 65.34 0.55ZM87.24 0.55L87.24 0.55Q84.29 0.55 82.09-0.09 79.89-0.73 78.44-1.48L78.44-1.48 78.07-5.23Q79.89-4.28 82.08-3.58 84.27-2.88 87.04-2.88L87.04-2.88Q89.87-2.88 91.29-3.78 92.72-4.67 92.72-6.45L92.72-6.45 92.72-6.73Q92.72-7.88 92.18-8.63 91.64-9.38 90.24-9.95 88.84-10.53 86.27-11.1L86.27-11.1Q83.19-11.78 81.42-12.69 79.64-13.6 78.88-14.95 78.12-16.3 78.12-18.25L78.12-18.25 78.12-18.48Q78.12-21.68 80.34-23.33 82.57-24.98 87.04-24.98L87.04-24.98Q89.92-24.98 92.03-24.33 94.14-23.68 95.49-22.88L95.49-22.88 95.87-19.45Q94.24-20.4 92.14-21.03 90.04-21.65 87.42-21.65L87.42-21.65Q85.52-21.65 84.34-21.26 83.17-20.88 82.64-20.16 82.12-19.45 82.12-18.45L82.12-18.45 82.12-18.25Q82.12-17.15 82.64-16.39 83.17-15.63 84.53-15.06 85.89-14.5 88.32-13.98L88.32-13.98Q91.44-13.35 93.28-12.48 95.12-11.6 95.92-10.26 96.72-8.93 96.72-6.83L96.72-6.83 96.72-6.4Q96.72-2.95 94.32-1.2 91.92 0.55 87.24 0.55ZM111.31 0.63L111.31 0.63Q106.06 0.63 103.35-2.21 100.64-5.05 100.64-10.38L100.64-10.38 100.64-14.1Q100.64-19.4 103.36-22.23 106.09-25.05 111.31-25.05L111.31-25.05Q116.56-25.05 119.28-22.23 121.99-19.4 121.99-14.1L121.99-14.1 121.99-10.38Q121.99-5.05 119.28-2.21 116.56 0.63 111.31 0.63ZM111.31-2.68L111.31-2.68Q114.56-2.68 116.25-4.6 117.94-6.53 117.94-10.15L117.94-10.15 117.94-14.33Q117.94-17.93 116.25-19.84 114.56-21.75 111.31-21.75L111.31-21.75Q108.09-21.75 106.39-19.84 104.69-17.93 104.69-14.33L104.69-14.33 104.69-10.15Q104.69-6.53 106.39-4.6 108.09-2.68 111.31-2.68ZM131.46-14.93L131.46-14.93 130.54-18.05 131.54-18.1Q132.34-21.2 134.29-22.99 136.24-24.78 139.46-24.78L139.46-24.78Q140.26-24.78 140.9-24.65 141.54-24.53 142.04-24.35L142.04-24.35 142.29-20.43Q141.66-20.63 140.9-20.75 140.14-20.88 139.21-20.88L139.21-20.88Q136.46-20.88 134.42-19.35 132.39-17.82 131.46-14.93ZM131.66-16.9L131.66 0 127.61 0 127.61-24.4 131.56-24.4 131.36-17.2 131.66-16.9Z" opacity="1" transform="matrix(1,0,0,1,0,0)" fill="#21272d" class="wordmark-text-0" data-fill-palette-color="primary" id="text-0"></path></svg></g></svg></g><g transform="matrix(1,0,0,1,0,118.61432786646743)"><svg viewBox="0 0 232.209792 21.505578237914175" height="21.505578237914175" width="232.209792"><g transform="matrix(1,0,0,1,0,0)"><svg width="232.209792" viewBox="1.75 -33.48 368.16 34.11" height="21.505578237914175" data-palette-color="#21272d"><path d="M10.93 0.55L10.93 0.55Q7.98 0.55 5.78-0.09 3.58-0.73 2.13-1.48L2.13-1.48 1.75-5.23Q3.58-4.28 5.76-3.58 7.95-2.88 10.73-2.88L10.73-2.88Q13.55-2.88 14.98-3.78 16.4-4.67 16.4-6.45L16.4-6.45 16.4-6.73Q16.4-7.88 15.86-8.63 15.33-9.38 13.93-9.95 12.53-10.53 9.95-11.1L9.95-11.1Q6.88-11.78 5.1-12.69 3.33-13.6 2.56-14.95 1.8-16.3 1.8-18.25L1.8-18.25 1.8-18.48Q1.8-21.68 4.03-23.33 6.25-24.98 10.73-24.98L10.73-24.98Q13.6-24.98 15.71-24.33 17.82-23.68 19.18-22.88L19.18-22.88 19.55-19.45Q17.93-20.4 15.83-21.03 13.73-21.65 11.1-21.65L11.1-21.65Q9.2-21.65 8.03-21.26 6.85-20.88 6.33-20.16 5.8-19.45 5.8-18.45L5.8-18.45 5.8-18.25Q5.8-17.15 6.33-16.39 6.85-15.63 8.21-15.06 9.58-14.5 12-13.98L12-13.98Q15.13-13.35 16.96-12.48 18.8-11.6 19.6-10.26 20.4-8.93 20.4-6.83L20.4-6.83 20.4-6.4Q20.4-2.95 18-1.2 15.6 0.55 10.93 0.55ZM45.72 0L41.67 0 41.67-15.18Q41.67-17.15 41.14-18.57 40.6-20 39.39-20.79 38.17-21.58 36.07-21.58L36.07-21.58Q34.15-21.58 32.75-20.85 31.35-20.13 30.48-18.89 29.62-17.65 29.27-16.07L29.27-16.07 28.37-18.95 29.42-18.95Q29.8-20.6 30.8-21.96 31.8-23.33 33.48-24.14 35.17-24.95 37.6-24.95L37.6-24.95Q40.5-24.95 42.28-23.85 44.07-22.75 44.9-20.69 45.72-18.63 45.72-15.63L45.72-15.63 45.72 0ZM29.4 0L25.35 0 25.35-33.13 29.37-33.13 29.37-25.18 29.25-18.18 29.4-17.85 29.4 0ZM61.7 0.63L61.7 0.63Q56.45 0.63 53.73-2.21 51.02-5.05 51.02-10.38L51.02-10.38 51.02-14.1Q51.02-19.4 53.75-22.23 56.47-25.05 61.7-25.05L61.7-25.05Q66.95-25.05 69.66-22.23 72.37-19.4 72.37-14.1L72.37-14.1 72.37-10.38Q72.37-5.05 69.66-2.21 66.95 0.63 61.7 0.63ZM61.7-2.68L61.7-2.68Q64.95-2.68 66.63-4.6 68.32-6.53 68.32-10.15L68.32-10.15 68.32-14.33Q68.32-17.93 66.63-19.84 64.95-21.75 61.7-21.75L61.7-21.75Q58.47-21.75 56.77-19.84 55.07-17.93 55.07-14.33L55.07-14.33 55.07-10.15Q55.07-6.53 56.77-4.6 58.47-2.68 61.7-2.68ZM81.84-14.93L81.84-14.93 80.92-18.05 81.92-18.1Q82.72-21.2 84.67-22.99 86.62-24.78 89.84-24.78L89.84-24.78Q90.64-24.78 91.28-24.65 91.92-24.53 92.42-24.35L92.42-24.35 92.67-20.43Q92.04-20.63 91.28-20.75 90.52-20.88 89.59-20.88L89.59-20.88Q86.84-20.88 84.81-19.35 82.77-17.82 81.84-14.93ZM82.04 0L77.99 0 77.99-24.4 81.94-24.4 81.74-17.2 82.04-16.9 82.04 0ZM105.52 0.5L105.52 0.5Q102.69 0.5 100.97-0.35 99.24-1.2 98.47-2.93 97.69-4.65 97.69-7.23L97.69-7.23 97.69-22.63 101.69-22.63 101.69-7.7Q101.69-5.3 102.79-4.16 103.89-3.03 106.49-3.03L106.49-3.03Q107.97-3.03 109.33-3.35 110.69-3.68 111.89-4.28L111.89-4.28 111.52-0.8Q110.34-0.2 108.77 0.15 107.19 0.5 105.52 0.5ZM111.27-20.8L93.69-20.8 93.69-24.05 111.64-24.05 111.27-20.8ZM101.59-23.65L97.72-23.65 97.69-30.5 101.77-31.03 101.59-23.65ZM129.46 0L125.41 0 125.41-24.4 129.46-24.4 129.46 0ZM127.44-28.4L127.44-28.4Q126.19-28.4 125.57-29.06 124.96-29.73 124.96-30.88L124.96-30.88 124.96-31Q124.96-32.18 125.57-32.83 126.19-33.48 127.44-33.48L127.44-33.48Q128.69-33.48 129.31-32.83 129.94-32.18 129.94-31L129.94-31 129.94-30.88Q129.94-29.7 129.31-29.05 128.69-28.4 127.44-28.4ZM143.78 0.55L143.78 0.55Q140.83 0.55 138.63-0.09 136.43-0.73 134.98-1.48L134.98-1.48 134.61-5.23Q136.43-4.28 138.62-3.58 140.81-2.88 143.58-2.88L143.58-2.88Q146.41-2.88 147.83-3.78 149.26-4.67 149.26-6.45L149.26-6.45 149.26-6.73Q149.26-7.88 148.72-8.63 148.18-9.38 146.78-9.95 145.38-10.53 142.81-11.1L142.81-11.1Q139.73-11.78 137.96-12.69 136.18-13.6 135.42-14.95 134.66-16.3 134.66-18.25L134.66-18.25 134.66-18.48Q134.66-21.68 136.88-23.33 139.11-24.98 143.58-24.98L143.58-24.98Q146.46-24.98 148.57-24.33 150.68-23.68 152.03-22.88L152.03-22.88 152.41-19.45Q150.78-20.4 148.68-21.03 146.58-21.65 143.96-21.65L143.96-21.65Q142.06-21.65 140.88-21.26 139.71-20.88 139.18-20.16 138.66-19.45 138.66-18.45L138.66-18.45 138.66-18.25Q138.66-17.15 139.18-16.39 139.71-15.63 141.07-15.06 142.43-14.5 144.86-13.98L144.86-13.98Q147.98-13.35 149.82-12.48 151.66-11.6 152.46-10.26 153.26-8.93 153.26-6.83L153.26-6.83 153.26-6.4Q153.26-2.95 150.86-1.2 148.46 0.55 143.78 0.55ZM187.5 0L183.45 0 183.45-15.18Q183.45-17.15 182.92-18.57 182.38-20 181.17-20.79 179.95-21.58 177.85-21.58L177.85-21.58Q175.93-21.58 174.52-20.85 173.1-20.13 172.23-18.89 171.35-17.65 171-16.07L171-16.07 170.28-18.95 171.15-18.95Q171.55-20.6 172.55-21.96 173.55-23.33 175.24-24.14 176.93-24.95 179.38-24.95L179.38-24.95Q182.28-24.95 184.07-23.85 185.85-22.75 186.68-20.69 187.5-18.63 187.5-15.63L187.5-15.63 187.5 0ZM171.18 0L167.13 0 167.13-24.4 171.18-24.4 171-18.55 171.18-18.32 171.18 0ZM204.03 0.55L204.03 0.55Q198.45 0.55 195.63-2.18 192.8-4.9 192.8-9.98L192.8-9.98 192.8-14.33Q192.8-19.48 195.43-22.26 198.05-25.05 203.1-25.05L203.1-25.05Q206.5-25.05 208.78-23.79 211.05-22.53 212.2-20.2 213.35-17.88 213.35-14.65L213.35-14.65 213.35-13.75Q213.35-12.95 213.29-12.15 213.23-11.35 213.13-10.58L213.13-10.58 209.4-10.58Q209.45-11.78 209.46-12.85 209.48-13.93 209.48-14.83L209.48-14.83Q209.48-17.05 208.76-18.59 208.05-20.13 206.64-20.94 205.23-21.75 203.1-21.75L203.1-21.75Q199.95-21.75 198.38-19.93 196.8-18.1 196.8-14.7L196.8-14.7 196.8-12.38 196.83-11.88 196.83-9.55Q196.83-8.03 197.28-6.8 197.73-5.58 198.69-4.69 199.65-3.8 201.14-3.34 202.63-2.88 204.68-2.88L204.68-2.88Q207.05-2.88 209.1-3.5 211.15-4.13 212.95-5.2L212.95-5.2 212.58-1.7Q210.95-0.68 208.8-0.06 206.65 0.55 204.03 0.55ZM212.28-10.58L194.93-10.58 194.93-13.63 212.28-13.63 212.28-10.58ZM229.07 0L222.85 0 216.85-24.4 221.02-24.4 225.82-2.95 226.3-2.95 231.3-23.75 237.02-23.75 242.02-2.95 242.47-2.95 247.32-24.4 251.47-24.4 245.47 0 239.27 0 235.15-17.35 234.35-20.83 233.97-20.83 233.2-17.35 229.07 0ZM277.12 0.53L277.12 0.53Q274.87 0.53 273.21-0.23 271.54-0.98 270.52-2.38 269.49-3.78 269.14-5.63L269.14-5.63 267.79-5.63 269.02-9.43Q269.14-7.23 270.06-5.76 270.97-4.3 272.49-3.58 274.02-2.85 275.94-2.85L275.94-2.85Q278.99-2.85 280.61-4.65 282.22-6.45 282.22-10L282.22-10 282.22-14.58Q282.22-18.05 280.59-19.85 278.97-21.65 275.87-21.65L275.87-21.65Q274.02-21.65 272.59-20.93 271.17-20.2 270.23-18.95 269.29-17.7 268.94-16.1L268.94-16.1 268.02-18.93 269.17-18.93Q269.54-20.6 270.51-21.96 271.47-23.33 273.14-24.14 274.82-24.95 277.29-24.95L277.29-24.95Q281.69-24.95 283.99-22.21 286.29-19.48 286.29-14.28L286.29-14.28 286.29-10.23Q286.29-4.98 283.96-2.23 281.62 0.53 277.12 0.53ZM269.14 0L265.09 0 265.09-33.13 269.12-33.13 269.12-25.18 268.99-18.18 269.02-17.4 269.02-7.2 268.97-5.9 269.14 0ZM296.09 0L292.07 0 292.07-33.13 296.09-33.13 296.09 0ZM321.31 0L317.29 0 317.46-5.93 317.31-6.55 317.31-14.33 317.34-15.75Q317.34-18.73 315.83-20.15 314.31-21.58 311.04-21.58L311.04-21.58Q308.41-21.58 306.23-20.83 304.04-20.08 302.34-19.07L302.34-19.07 302.71-22.53Q303.66-23.1 304.98-23.66 306.29-24.23 307.98-24.6 309.66-24.98 311.69-24.98L311.69-24.98Q314.31-24.98 316.15-24.34 317.99-23.7 319.13-22.5 320.26-21.3 320.79-19.6 321.31-17.9 321.31-15.8L321.31-15.8 321.31 0ZM308.89 0.53L308.89 0.53Q305.26 0.53 303.33-1.24 301.39-3 301.39-6.28L301.39-6.28 301.39-7Q301.39-10.38 303.48-12.04 305.56-13.7 310.11-14.35L310.11-14.35 317.84-15.45 318.06-12.5 310.61-11.43Q307.81-11.03 306.61-10.06 305.41-9.1 305.41-7.23L305.41-7.23 305.41-6.83Q305.41-4.9 306.6-3.88 307.79-2.85 310.16-2.85L310.16-2.85Q312.26-2.85 313.76-3.58 315.26-4.3 316.19-5.53 317.11-6.75 317.44-8.25L317.44-8.25 318.06-5.5 317.29-5.5Q316.94-3.9 315.98-2.53 315.01-1.15 313.29-0.31 311.56 0.53 308.89 0.53ZM336.91 0.55L336.91 0.55Q331.66 0.55 329.1-2.29 326.54-5.13 326.54-10.33L326.54-10.33 326.54-14.13Q326.54-19.35 329.11-22.16 331.69-24.98 336.91-24.98L336.91-24.98Q338.46-24.98 339.74-24.69 341.01-24.4 342.02-23.94 343.04-23.48 343.74-22.98L343.74-22.98 344.09-19.45Q342.91-20.35 341.3-20.98 339.69-21.6 337.51-21.6L337.51-21.6Q334.01-21.6 332.3-19.66 330.59-17.73 330.59-14.03L330.59-14.03 330.59-10.43Q330.59-6.8 332.3-4.85 334.01-2.9 337.51-2.9L337.51-2.9Q339.76-2.9 341.4-3.53 343.04-4.15 344.31-5.05L344.31-5.05 343.94-1.48Q342.84-0.73 341.06-0.09 339.29 0.55 336.91 0.55ZM369.91 0L365.06 0 355.41-11.38 352.83-11.38 352.83-14.53 355.41-14.53 364.66-24.4 369.46-24.4 358.38-12.63 358.38-13.6 369.91 0ZM353.23 0L349.21 0 349.21-33.13 353.23-33.13 353.23 0Z" opacity="1" transform="matrix(1,0,0,1,0,0)" fill="#21272d" class="slogan-text-1" data-fill-palette-color="secondary" id="text-1"></path></svg></g></svg></g></svg></g></svg></g><g transform="matrix(1,0,0,1,0,0.3502997652609423)"><svg viewBox="0 0 143.8564369338318 140.1199061043816" height="140.1199061043816" width="143.8564369338318"><g><svg xmlns="http://www.w3.org/2000/svg" xmlns:xlink="http://www.w3.org/1999/xlink" version="1.1" x="0" y="0" viewBox="25 31 462 450" style="enable-background:new 0 0 512 512;" xml:space="preserve" height="140.1199061043816" width="143.8564369338318" class="icon-icon-0" data-fill-palette-color="accent" id="icon-0"><g fill="#ea5141" data-fill-palette-color="accent"><g fill="#ea5141" data-fill-palette-color="accent"><rect x="202" y="361" width="110" height="40" fill="#ea5141" data-fill-palette-color="accent"></rect><path d="M72 51.422A5 5 0 0 0 70 51H30A5 5 0 0 0 30 61H70C70.712 61 71.387 60.846 72 60.578V71H112V41H72z" fill="#ea5141" data-fill-palette-color="accent"></path><rect x="202" y="201" width="110" height="30" fill="#ea5141" data-fill-palette-color="accent"></rect><rect x="202" y="281" width="110" height="30" fill="#ea5141" data-fill-palette-color="accent"></rect><path d="M72 131.422A5 5 0 0 0 70 131H30A5 5 0 0 0 30 141H70C70.712 141 71.387 140.846 72 140.578V151H112V121H72z" fill="#ea5141" data-fill-palette-color="accent"></path><rect x="202" y="111" width="110" height="40" fill="#ea5141" data-fill-palette-color="accent"></rect><path d="M72 451.422A5 5 0 0 0 70 451H30A5 5 0 1 0 30 461H70C70.712 461 71.387 460.847 72 460.578V471H112V441H72z" fill="#ea5141" data-fill-palette-color="accent"></path><path d="M442 61H482A5 5 0 1 0 482 51H442V41H402V71H442z" fill="#ea5141" data-fill-palette-color="accent"></path><path d="M72 291.422A5 5 0 0 0 70 291H30A5 5 0 1 0 30 301H70C70.712 301 71.387 300.847 72 300.578V311H112V281H72z" fill="#ea5141" data-fill-palette-color="accent"></path><path d="M72 371.422A5 5 0 0 0 70 371H30A5 5 0 1 0 30 381H70C70.712 381 71.387 380.847 72 380.578V391H112V361H72z" fill="#ea5141" data-fill-palette-color="accent"></path><path d="M72 211.422A5 5 0 0 0 70 211H30A5 5 0 0 0 30 221H70C70.712 221 71.387 220.846 72 220.578V231H112V201H72z" fill="#ea5141" data-fill-palette-color="accent"></path><path d="M122 36V481H392V31H122zM152 66A5 5 0 0 1 157 61H357A5 5 0 0 1 362 66V446A5 5 0 0 1 357 451H157A5 5 0 0 1 152 446z" fill="#ea5141" data-fill-palette-color="accent"></path><path d="M352 71H162V441H352zM322 406A5 5 0 0 1 317 411H197A5 5 0 0 1 192 406V356A5 5 0 0 1 197 351H317A5 5 0 0 1 322 356zM322 316A5 5 0 0 1 317 321H197A5 5 0 0 1 192 316V276A5 5 0 0 1 197 271H317A5 5 0 0 1 322 276zM322 236A5 5 0 0 1 317 241H197A5 5 0 0 1 192 236V196A5 5 0 0 1 197 191H317A5 5 0 0 1 322 196zM322 156A5 5 0 0 1 317 161H197A5 5 0 0 1 192 156V106A5 5 0 0 1 197 101H317A5 5 0 0 1 322 106z" fill="#ea5141" data-fill-palette-color="accent"></path><path d="M482 131H442V121H402V151H442V141H482A5 5 0 1 0 482 131" fill="#ea5141" data-fill-palette-color="accent"></path><path d="M482 211H442V201H402V231H442V221H482A5 5 0 1 0 482 211" fill="#ea5141" data-fill-palette-color="accent"></path><path d="M482 291H442V281H402V311H442V301H482C484.762 301 487 298.762 487 296S484.762 291 482 291" fill="#ea5141" data-fill-palette-color="accent"></path><path d="M482 371H442V361H402V391H442V381H482C484.762 381 487 378.762 487 376S484.762 371 482 371" fill="#ea5141" data-fill-palette-color="accent"></path><path d="M482 451H442V441H402V471H442V461H482C484.762 461 487 458.762 487 456S484.762 451 482 451" fill="#ea5141" data-fill-palette-color="accent"></path></g></g></svg></g></svg></g></svg></g><defs></defs></svg><rect width="395.52" height="93.87113941195635" fill="none" stroke="none" visibility="hidden"></rect></g></svg></g></svg>